<?xml version="1.0" standalone="no"?>
<!DOCTYPE svg PUBLIC "-//W3C//DTD SVG 20010904//EN"
 "http://www.w3.org/TR/2001/REC-SVG-20010904/DTD/svg10.dtd">
<svg version="1.0" xmlns="http://www.w3.org/2000/svg"
 width="500.000000pt" height="500.000000pt" viewBox="0 0 500.000000 500.000000"
 preserveAspectRatio="xMidYMid meet">
<metadata>
Created by potrace 1.14, written by Peter Selinger 2001-2017
</metadata>
<g transform="translate(0.000000,500.000000) scale(0.100000,-0.100000)"
fill="#000000" stroke="none">
<path d="M0 2500 l0 -2500 2500 0 2500 0 0 2500 0 2500 -2500 0 -2500 0 0
-2500z m975 213 c121 -166 223 -302 226 -303 3 0 97 137 209 305 l203 305 74
0 73 0 0 -665 0 -665 -125 0 -125 0 -2 380 -3 379 -123 -174 c-107 -152 -127
-175 -150 -175 -15 0 -36 -3 -47 -6 -17 -4 -47 29 -175 194 l-155 199 -3 -398
-2 -399 -130 0 -130 0 0 658 c0 362 3 662 7 666 4 4 41 5 82 4 l76 -3 220
-302z m1669 -134 l306 -441 2 438 3 439 125 0 125 0 3 -662 2 -663 -128 0
-128 0 -304 440 -305 440 -3 -440 -2 -440 -125 0 -125 0 0 665 0 665 124 0
124 0 306 -441z m1896 436 c0 -2 -103 -188 -230 -413 l-230 -408 0 -252 0
-252 -125 0 -125 0 0 256 0 257 -220 384 c-121 212 -218 388 -215 392 7 12
245 35 255 25 4 -5 72 -124 150 -264 77 -140 145 -259 149 -263 5 -4 73 104
151 240 79 136 152 260 162 276 l19 27 130 0 c71 0 129 -2 129 -5z"/>
</g>
</svg>
